<svg width="800" height="600" xmlns="http://www.w3.org/2000/svg">

 <g>
  <title>Layer 1</title>
  <rect stroke="#000" id="svg_35" height="231.57895" width="701.31579" y="35.52631" x="46.05263" fill="#DDDDDD"/>
  <ellipse ry="73.02632" rx="80.26316" id="svg_36" cy="88.81579" cx="692.10526" stroke="#000" fill="#666666"/>
  <path id="svg_37" d="m628.39356,83.00344l13.29013,-13.63179l36.40811,37.32606l60.69115,-62.21009l13.29483,13.62216l-73.98598,75.85152" stroke="#000" fill="#729C62"/>
  <rect stroke="#000" id="svg_38" height="231.57895" width="701.31579" y="343.42105" x="47.36842" fill="#DDDDDD"/>
  <ellipse ry="73.02632" rx="80.26316" id="svg_39" cy="384.86843" cx="696.05263" stroke="#000" fill="#666666"/>
  <path stroke="#000" id="svg_41" d="m750.75806,414.9342l-36.06267,-31.71587l36.05611,-31.71587l-18.53603,-16.31332l-36.06267,31.71587l-36.06267,-31.71587l-18.53603,16.31332l36.05611,31.71587l-36.06267,31.71587l18.54914,16.30756l36.05611,-31.71587l36.05611,31.71587" fill="#8B4D4B"/>
  <rect stroke="#000" id="svg_43" height="59.21053" width="453.94737" y="65.78947" x="75" fill="#999999"/>
  <rect id="svg_44" height="18.42105" width="356.57895" y="163.15789" x="86.84211" stroke="#000" fill="#999999"/>
  <rect id="svg_45" height="18.42105" width="356.57895" y="201.31579" x="86.84211" stroke="#000" fill="#999999"/>
  <rect stroke="#000" id="svg_46" height="59.21053" width="453.94737" y="376.31578" x="76.31579" fill="#999999"/>
  <rect id="svg_47" height="18.42105" width="356.57895" y="473.6842" x="96.05263" stroke="#000" fill="#999999"/>
  <rect id="svg_48" height="18.42105" width="356.57895" y="523.6842" x="97.36842" stroke="#000" fill="#999999"/>
 </g>
</svg>